<?xml version="1.0" ?><svg xmlns="http://www.w3.org/2000/svg" xmlns:xlink="http://www.w3.org/1999/xlink" version="1.1" viewBox="0 0 512 512" style="enable-background:new 0 0 512 512;" xml:space="preserve"><g id="_x32_3_Statics_Book"><g><linearGradient id="SVGID_1_" gradientUnits="userSpaceOnUse" x1="284.9663" y1="-205.8513" x2="226.5783" y2="880.1656"><stop offset="0" style="stop-color:#EAE9FE"/><stop offset="0.4236" style="stop-color:#EEEEFE"/><stop offset="0.8967" style="stop-color:#FBFBFF"/><stop offset="1" style="stop-color:#FFFFFF"/></linearGradient><path style="fill:url(#SVGID_1_);" d="M468.836,264.275c-9.502-7.393-20.977-13.763-25.396-24.961    c-6.009-15.229,3.597-31.571,9.261-46.931c17.296-46.9-4.903-102.439-44.732-132.645    c-75.982-57.623-224.302-37.425-245.028,42.219c-8.768,33.692,6.94,72.131-9.131,103.013    c-20.278,38.966-74.073,41.594-108.719,58.921C2.169,285.358-6.419,332.1,24.365,367.686    c11.304,13.068,25.769,22.07,36.136,36.348c15.001,20.659,23.415,43.504,43.486,60.545c28.263,23.996,75.517,29.946,100.538,2.586    c14.09-15.407,18.675-38.106,34.054-52.225c20.245-18.586,52.242-16.086,78.004-6.514c25.762,9.571,49.655,25.026,76.789,29.381    c42.426,6.81,87.917-18.085,105.053-57.489C515.561,340.912,502.748,290.664,468.836,264.275z"/><g><path style="fill:#EDEDED;" d="M388.57,441.099H160.021c-27.284,0-49.402-22.118-49.402-49.402V121.004h290.762v307.284     C401.381,435.363,395.645,441.099,388.57,441.099z"/><path style="fill:#386E93;" d="M173.798,121.005h-63.179v270.691c0,27.284,22.118,49.403,49.402,49.403h13.777V121.005z"/><path style="fill:#F9BB40;" d="M158.477,70.901c-12.783,0-24.763,5.002-33.779,14.018c-9.379,9.315-14.408,21.795-14.063,35.124     c0.677,26.182,23.167,46.575,49.358,46.575l228.577,0c7.075,0,12.811-5.736,12.811-12.811V83.712     c0-7.075-5.736-12.811-12.811-12.811H158.477z"/><path style="fill:#FF5859;" d="M234.095,341.935v28.772c0,3.596-2.915,6.512-6.512,6.512H214.3c-3.596,0-6.512-2.915-6.512-6.512     v-28.772c0-3.632,2.944-6.577,6.577-6.577h13.153C231.151,335.358,234.095,338.303,234.095,341.935z"/><path style="fill:#F9BB40;" d="M277.786,322.501v48.205c0,3.596-2.915,6.512-6.512,6.512h-13.283     c-3.596,0-6.512-2.915-6.512-6.512v-48.205c0-3.632,2.944-6.577,6.577-6.577h13.153     C274.841,315.925,277.786,318.869,277.786,322.501z"/><path style="fill:#FF5859;" d="M321.017,302.966v67.74c0,3.596-2.915,6.512-6.512,6.512h-13.283     c-3.596,0-6.512-2.915-6.512-6.512v-67.74c0-3.632,2.944-6.577,6.577-6.577h13.153     C318.072,296.39,321.017,299.334,321.017,302.966z"/><path style="fill:#5EDB6B;" d="M364.248,269.684v101.023c0,3.596-2.915,6.512-6.512,6.512h-13.283     c-3.596,0-6.512-2.915-6.512-6.512V269.684c0-3.632,2.944-6.577,6.577-6.577h13.153     C361.303,263.107,364.248,266.051,364.248,269.684z"/><path style="fill:#2769FD;" d="M346.324,222.057l-6.563,20.973c-0.937,3.047-5.097,3.633-7.03,0.998l-15.643-21.505     c-1.934-2.635,0-6.325,3.223-6.268l22.206,0.526C345.151,216.842,347.085,219.476,346.324,222.057z"/><path style="fill:#332E8E;" d="M159.939,153.286h215.398c7.009,0,12.712-5.703,12.712-12.712V96.944     c0-7.009-5.703-12.712-12.712-12.712h-216.86c-20.001,0-36.746,17.448-34.286,38.658     C126.202,140.218,141.571,153.286,159.939,153.286z M158.476,91.732h216.86c2.874,0,5.212,2.338,5.212,5.212v18.065H279.311     c-2.072,0-3.75,1.678-3.75,3.75s1.678,3.75,3.75,3.75h101.238v18.064c0,2.874-2.339,5.212-5.212,5.212H159.939     c-14.321,0-26.752-10.437-28.297-23.76C129.72,105.49,142.732,91.732,158.476,91.732z"/><path style="fill:#332E8E;" d="M106.869,391.696c0,29.309,23.844,53.152,53.153,53.152c36.783,0,204.788,0,228.549,0     c9.132,0,16.561-7.429,16.561-16.56V153.807v-21.414V83.712c0-9.131-7.429-16.56-16.561-16.56H158.477     c-28.437,0-52.353,23.405-51.591,52.988c0.005,0.18,0.035,0.353,0.042,0.532c-0.011,0.114-0.06,0.215-0.06,0.332V391.696z      M388.57,437.348H177.547v-266.98H388.57c3.344,0,6.455-1.004,9.061-2.715v260.635     C397.631,433.283,393.567,437.348,388.57,437.348z M158.477,74.652H388.57c4.996,0,9.061,4.065,9.061,9.06v48.681v21.414     c0,4.996-4.065,9.061-9.061,9.061H159.994c-24.537,0-44.998-19.254-45.609-42.921C113.734,94.712,134.126,74.652,158.477,74.652z      M159.994,170.368h10.054v266.98h-10.026c-25.173,0-45.653-20.479-45.653-45.652V144.983     C123.694,160.122,140.75,170.368,159.994,170.368z"/><path style="fill:#332E8E;" d="M227.518,331.609h-13.153c-5.695,0-10.327,4.634-10.327,10.327v28.772     c0,5.659,4.603,10.261,10.262,10.261h13.284c5.658,0,10.261-4.602,10.261-10.261v-28.772     C237.845,336.242,233.213,331.609,227.518,331.609z M230.345,370.708c0,1.523-1.239,2.761-2.761,2.761H214.3     c-1.523,0-2.762-1.238-2.762-2.761v-28.772c0-1.56,1.268-2.827,2.827-2.827h13.153c1.559,0,2.827,1.267,2.827,2.827V370.708z"/><path style="fill:#332E8E;" d="M271.209,312.175h-13.153c-5.695,0-10.327,4.634-10.327,10.327v48.206     c0,5.659,4.603,10.261,10.261,10.261h13.284c5.659,0,10.262-4.602,10.262-10.261v-48.206     C281.536,316.809,276.904,312.175,271.209,312.175z M274.036,370.708c0,1.523-1.239,2.761-2.762,2.761H257.99     c-1.522,0-2.761-1.238-2.761-2.761v-48.206c0-1.56,1.268-2.827,2.827-2.827h13.153c1.559,0,2.827,1.267,2.827,2.827V370.708z"/><path style="fill:#332E8E;" d="M314.441,292.639h-13.154c-5.693,0-10.326,4.634-10.326,10.327v67.742     c0,5.659,4.603,10.261,10.261,10.261h13.284c5.658,0,10.261-4.602,10.261-10.261v-67.742     C324.766,297.273,320.134,292.639,314.441,292.639z M317.266,370.708c0,1.523-1.239,2.761-2.761,2.761h-13.284     c-1.522,0-2.761-1.238-2.761-2.761v-67.742c0-1.56,1.268-2.827,2.826-2.827h13.154c1.558,0,2.826,1.267,2.826,2.827V370.708z"/><path style="fill:#332E8E;" d="M357.671,259.358h-13.153c-5.695,0-10.327,4.634-10.327,10.327v101.023     c0,5.659,4.603,10.261,10.262,10.261h13.282c5.659,0,10.262-4.602,10.262-10.261V269.685     C367.998,263.991,363.365,259.358,357.671,259.358z M360.498,370.708c0,1.523-1.239,2.761-2.762,2.761h-13.282     c-1.523,0-2.762-1.238-2.762-2.761V269.685c0-1.56,1.268-2.827,2.827-2.827h13.153c1.559,0,2.827,1.267,2.827,2.827V370.708z"/><path style="fill:#332E8E;" d="M337.356,249.34c2.855-0.483,5.15-2.478,5.985-5.19l6.563-20.972     c0.006-0.02,0.012-0.042,0.018-0.061c0.696-2.361,0.255-4.863-1.208-6.868c-1.454-1.99-3.683-3.162-6.107-3.218l-22.229-0.527     c-2.941-0.01-5.591,1.541-6.942,4.153c-1.353,2.612-1.111,5.713,0.621,8.074l5.469,7.517l-112.516,74.587     c-1.726,1.143-2.198,3.472-1.055,5.198c0.723,1.089,1.914,1.677,3.13,1.677c0.712,0,1.431-0.203,2.068-0.625l112.788-74.767     l5.768,7.929c1.5,2.043,3.837,3.206,6.313,3.206C336.463,249.453,336.909,249.416,337.356,249.34z M320.12,220.317     c-0.002-0.002,0.105-0.31,0.101-0.313l22.212,0.527c0.109,0.002,0.193,0.1,0.223,0.144c0.052,0.071,0.106,0.181,0.073,0.308     l-6.534,20.93c-0.002,0.005-0.271,0.134-0.433-0.093L320.12,220.317z"/></g></g></g><g id="Layer_1"/></svg>